<mxfile host="Electron" agent="Mozilla/5.0 (Windows NT 10.0; Win64; x64) AppleWebKit/537.36 (KHTML, like Gecko) draw.io/26.0.3 Chrome/130.0.6723.137 Electron/33.2.1 Safari/537.36" version="26.0.3" pages="2">
  <diagram name="第 1 页" id="yXO0nVfDmiSfoeFOeQIZ">
    <mxGraphModel dx="4240" dy="4918" grid="0" gridSize="10" guides="1" tooltips="1" connect="1" arrows="1" fold="1" page="0" pageScale="1" pageWidth="1000" pageHeight="1000" math="0" shadow="0">
      <root>
        <mxCell id="0" />
        <mxCell id="1" parent="0" />
        <mxCell id="0zC2GsEMcHUbiQ5b-xgO-1" value="Actor" style="shape=umlActor;verticalLabelPosition=bottom;verticalAlign=top;html=1;outlineConnect=0;" vertex="1" parent="1">
          <mxGeometry x="-42" y="-315" width="30" height="60" as="geometry" />
        </mxCell>
        <mxCell id="0zC2GsEMcHUbiQ5b-xgO-2" value="" style="rounded=0;whiteSpace=wrap;html=1;" vertex="1" parent="1">
          <mxGeometry x="258" y="-478" width="248" height="237" as="geometry" />
        </mxCell>
        <mxCell id="0zC2GsEMcHUbiQ5b-xgO-29" style="edgeStyle=none;curved=1;rounded=0;orthogonalLoop=1;jettySize=auto;html=1;fontSize=12;startSize=8;endSize=8;" edge="1" parent="1" source="0zC2GsEMcHUbiQ5b-xgO-3">
          <mxGeometry relative="1" as="geometry">
            <mxPoint x="2727" y="-1069" as="targetPoint" />
          </mxGeometry>
        </mxCell>
        <mxCell id="0zC2GsEMcHUbiQ5b-xgO-3" value="" style="whiteSpace=wrap;html=1;aspect=fixed;" vertex="1" parent="1">
          <mxGeometry x="219" y="-804" width="326" height="326" as="geometry" />
        </mxCell>
        <mxCell id="0zC2GsEMcHUbiQ5b-xgO-4" value="" style="whiteSpace=wrap;html=1;aspect=fixed;" vertex="1" parent="1">
          <mxGeometry x="35" y="-1506" width="702" height="702" as="geometry" />
        </mxCell>
        <mxCell id="0zC2GsEMcHUbiQ5b-xgO-5" value="" style="rounded=0;whiteSpace=wrap;html=1;" vertex="1" parent="1">
          <mxGeometry x="-577" y="-241" width="2024" height="434" as="geometry" />
        </mxCell>
        <mxCell id="0zC2GsEMcHUbiQ5b-xgO-6" value="" style="endArrow=classic;html=1;rounded=0;fontSize=12;startSize=8;endSize=8;curved=1;" edge="1" parent="1" source="0zC2GsEMcHUbiQ5b-xgO-2">
          <mxGeometry width="50" height="50" relative="1" as="geometry">
            <mxPoint x="1177" y="-543" as="sourcePoint" />
            <mxPoint x="3343" y="54" as="targetPoint" />
          </mxGeometry>
        </mxCell>
        <mxCell id="0zC2GsEMcHUbiQ5b-xgO-8" value="玩家进入当前层" style="rounded=0;whiteSpace=wrap;html=1;" vertex="1" parent="1">
          <mxGeometry x="2254" y="-1846" width="120" height="60" as="geometry" />
        </mxCell>
        <mxCell id="0zC2GsEMcHUbiQ5b-xgO-9" value="" style="rounded=0;whiteSpace=wrap;html=1;" vertex="1" parent="1">
          <mxGeometry x="3317" y="-941" width="207" height="16" as="geometry" />
        </mxCell>
        <mxCell id="0zC2GsEMcHUbiQ5b-xgO-10" value="" style="rounded=0;whiteSpace=wrap;html=1;" vertex="1" parent="1">
          <mxGeometry x="3628" y="-1024" width="261" height="15" as="geometry" />
        </mxCell>
        <mxCell id="0zC2GsEMcHUbiQ5b-xgO-11" value="1.从左下到右上的跑图" style="whiteSpace=wrap;html=1;" vertex="1" parent="1">
          <mxGeometry x="2418" y="-1846" width="120" height="60" as="geometry" />
        </mxCell>
        <mxCell id="0zC2GsEMcHUbiQ5b-xgO-12" value="" style="rounded=0;whiteSpace=wrap;html=1;" vertex="1" parent="1">
          <mxGeometry x="3957" y="-1183" width="507" height="12" as="geometry" />
        </mxCell>
        <mxCell id="0zC2GsEMcHUbiQ5b-xgO-13" value="帕图过程中有小怪" style="whiteSpace=wrap;html=1;" vertex="1" parent="1">
          <mxGeometry x="2593" y="-1846" width="120" height="60" as="geometry" />
        </mxCell>
        <mxCell id="0zC2GsEMcHUbiQ5b-xgO-14" value="" style="rounded=0;whiteSpace=wrap;html=1;" vertex="1" parent="1">
          <mxGeometry x="2877" y="-1027" width="207" height="16" as="geometry" />
        </mxCell>
        <mxCell id="0zC2GsEMcHUbiQ5b-xgO-15" value="" style="rounded=0;whiteSpace=wrap;html=1;" vertex="1" parent="1">
          <mxGeometry x="2271" y="-1191" width="533" height="15" as="geometry" />
        </mxCell>
        <mxCell id="0zC2GsEMcHUbiQ5b-xgO-16" value="Actor" style="shape=umlActor;verticalLabelPosition=bottom;verticalAlign=top;html=1;outlineConnect=0;" vertex="1" parent="1">
          <mxGeometry x="3402" y="-1011" width="30" height="60" as="geometry" />
        </mxCell>
        <mxCell id="0zC2GsEMcHUbiQ5b-xgO-17" value="电梯" style="shape=process;whiteSpace=wrap;html=1;backgroundOutline=1;" vertex="1" parent="1">
          <mxGeometry x="3357" y="-925" width="120" height="775" as="geometry" />
        </mxCell>
        <mxCell id="0zC2GsEMcHUbiQ5b-xgO-19" value="第二层" style="text;html=1;align=center;verticalAlign=middle;resizable=0;points=[];autosize=1;strokeColor=none;fillColor=none;fontSize=16;" vertex="1" parent="1">
          <mxGeometry x="3717.5" y="-685.5" width="66" height="31" as="geometry" />
        </mxCell>
        <mxCell id="0zC2GsEMcHUbiQ5b-xgO-20" value="第一层" style="text;html=1;align=center;verticalAlign=middle;resizable=0;points=[];autosize=1;strokeColor=none;fillColor=none;fontSize=16;" vertex="1" parent="1">
          <mxGeometry x="3697" y="-413" width="66" height="31" as="geometry" />
        </mxCell>
        <mxCell id="0zC2GsEMcHUbiQ5b-xgO-21" value="" style="shape=process;whiteSpace=wrap;html=1;backgroundOutline=1;" vertex="1" parent="1">
          <mxGeometry x="3149" y="-574" width="534.5" height="18" as="geometry" />
        </mxCell>
        <mxCell id="0zC2GsEMcHUbiQ5b-xgO-22" value="" style="rounded=0;whiteSpace=wrap;html=1;" vertex="1" parent="1">
          <mxGeometry x="2785" y="-1429" width="308" height="16" as="geometry" />
        </mxCell>
        <mxCell id="0zC2GsEMcHUbiQ5b-xgO-23" value="" style="rounded=0;whiteSpace=wrap;html=1;" vertex="1" parent="1">
          <mxGeometry x="3763" y="-1383" width="405" height="18" as="geometry" />
        </mxCell>
        <mxCell id="0zC2GsEMcHUbiQ5b-xgO-24" value="" style="rounded=0;whiteSpace=wrap;html=1;" vertex="1" parent="1">
          <mxGeometry x="3135" y="-1673" width="564" height="18" as="geometry" />
        </mxCell>
        <mxCell id="0zC2GsEMcHUbiQ5b-xgO-25" value="小怪" style="ellipse;shape=cloud;whiteSpace=wrap;html=1;" vertex="1" parent="1">
          <mxGeometry x="2386" y="-1336" width="120" height="80" as="geometry" />
        </mxCell>
        <mxCell id="0zC2GsEMcHUbiQ5b-xgO-26" value="boss" style="rounded=1;whiteSpace=wrap;html=1;" vertex="1" parent="1">
          <mxGeometry x="3342" y="-1764" width="120" height="60" as="geometry" />
        </mxCell>
        <mxCell id="0zC2GsEMcHUbiQ5b-xgO-27" value="" style="shape=process;whiteSpace=wrap;html=1;backgroundOutline=1;size=0.18941152618382998;" vertex="1" parent="1">
          <mxGeometry x="3355.5" y="-2591" width="93" height="670" as="geometry" />
        </mxCell>
        <mxCell id="0zC2GsEMcHUbiQ5b-xgO-28" value="" style="rounded=0;whiteSpace=wrap;html=1;" vertex="1" parent="1">
          <mxGeometry x="1803" y="-2068" width="3116" height="44" as="geometry" />
        </mxCell>
        <mxCell id="CoQEK6J0AAms7xFMK88c-1" value="" style="rounded=0;whiteSpace=wrap;html=1;" vertex="1" parent="1">
          <mxGeometry x="3608" y="-954" width="496" height="239" as="geometry" />
        </mxCell>
        <mxCell id="CoQEK6J0AAms7xFMK88c-2" value="" style="ellipse;whiteSpace=wrap;html=1;aspect=fixed;" vertex="1" parent="1">
          <mxGeometry x="3644" y="-804" width="80" height="80" as="geometry" />
        </mxCell>
        <mxCell id="CoQEK6J0AAms7xFMK88c-3" value="" style="ellipse;whiteSpace=wrap;html=1;aspect=fixed;" vertex="1" parent="1">
          <mxGeometry x="3673.5" y="-774.5" width="21" height="21" as="geometry" />
        </mxCell>
        <mxCell id="CoQEK6J0AAms7xFMK88c-4" value="" style="ellipse;whiteSpace=wrap;html=1;aspect=fixed;" vertex="1" parent="1">
          <mxGeometry x="4059" y="-814" width="31" height="31" as="geometry" />
        </mxCell>
        <mxCell id="CoQEK6J0AAms7xFMK88c-5" value="" style="ellipse;whiteSpace=wrap;html=1;aspect=fixed;" vertex="1" parent="1">
          <mxGeometry x="4009" y="-762" width="34" height="34" as="geometry" />
        </mxCell>
        <mxCell id="CoQEK6J0AAms7xFMK88c-10" value="" style="group" vertex="1" connectable="0" parent="1">
          <mxGeometry x="6821" y="-732" width="504" height="249" as="geometry" />
        </mxCell>
        <mxCell id="CoQEK6J0AAms7xFMK88c-6" value="" style="rounded=0;whiteSpace=wrap;html=1;" vertex="1" parent="CoQEK6J0AAms7xFMK88c-10">
          <mxGeometry width="504" height="249" as="geometry" />
        </mxCell>
        <mxCell id="CoQEK6J0AAms7xFMK88c-7" value="" style="ellipse;whiteSpace=wrap;html=1;aspect=fixed;" vertex="1" parent="CoQEK6J0AAms7xFMK88c-10">
          <mxGeometry x="23" y="149" width="80" height="80" as="geometry" />
        </mxCell>
        <mxCell id="CoQEK6J0AAms7xFMK88c-8" value="" style="ellipse;whiteSpace=wrap;html=1;aspect=fixed;" vertex="1" parent="CoQEK6J0AAms7xFMK88c-10">
          <mxGeometry x="409" y="152" width="80" height="80" as="geometry" />
        </mxCell>
        <mxCell id="CoQEK6J0AAms7xFMK88c-11" value="" style="rounded=0;whiteSpace=wrap;html=1;" vertex="1" parent="CoQEK6J0AAms7xFMK88c-10">
          <mxGeometry x="235" y="49" width="27" height="83" as="geometry" />
        </mxCell>
        <mxCell id="CoQEK6J0AAms7xFMK88c-13" value="0" style="triangle;whiteSpace=wrap;html=1;rotation=-88;" vertex="1" parent="CoQEK6J0AAms7xFMK88c-10">
          <mxGeometry x="253.5" y="116" width="26" height="21" as="geometry" />
        </mxCell>
        <mxCell id="CoQEK6J0AAms7xFMK88c-20" value="4" style="triangle;whiteSpace=wrap;html=1;rotation=-88;" vertex="1" parent="CoQEK6J0AAms7xFMK88c-10">
          <mxGeometry x="219" y="116" width="26" height="21" as="geometry" />
        </mxCell>
        <mxCell id="CoQEK6J0AAms7xFMK88c-31" value="" style="shape=flexArrow;endArrow=classic;html=1;rounded=0;fontSize=12;startSize=8;endSize=8;curved=1;" edge="1" parent="CoQEK6J0AAms7xFMK88c-10">
          <mxGeometry width="50" height="50" relative="1" as="geometry">
            <mxPoint x="421" y="191" as="sourcePoint" />
            <mxPoint x="474" y="196" as="targetPoint" />
          </mxGeometry>
        </mxCell>
        <mxCell id="CoQEK6J0AAms7xFMK88c-32" value="" style="shape=flexArrow;endArrow=classic;html=1;rounded=0;fontSize=12;startSize=8;endSize=8;curved=1;" edge="1" parent="CoQEK6J0AAms7xFMK88c-10">
          <mxGeometry width="50" height="50" relative="1" as="geometry">
            <mxPoint x="88" y="188.76" as="sourcePoint" />
            <mxPoint x="29" y="188.76" as="targetPoint" />
          </mxGeometry>
        </mxCell>
        <mxCell id="CoQEK6J0AAms7xFMK88c-41" value="" style="shape=cylinder3;whiteSpace=wrap;html=1;boundedLbl=1;backgroundOutline=1;size=15;" vertex="1" parent="CoQEK6J0AAms7xFMK88c-10">
          <mxGeometry x="262" y="38" width="9" height="72" as="geometry" />
        </mxCell>
        <mxCell id="CoQEK6J0AAms7xFMK88c-42" value="" style="shape=cylinder3;whiteSpace=wrap;html=1;boundedLbl=1;backgroundOutline=1;size=15;" vertex="1" parent="CoQEK6J0AAms7xFMK88c-10">
          <mxGeometry x="226" y="41" width="9" height="71" as="geometry" />
        </mxCell>
        <mxCell id="CoQEK6J0AAms7xFMK88c-43" value="" style="shape=or;whiteSpace=wrap;html=1;rotation=-90;" vertex="1" parent="CoQEK6J0AAms7xFMK88c-10">
          <mxGeometry x="234" y="24" width="29" height="25" as="geometry" />
        </mxCell>
        <mxCell id="CoQEK6J0AAms7xFMK88c-44" value="传感器精度" style="rhombus;whiteSpace=wrap;html=1;" vertex="1" parent="CoQEK6J0AAms7xFMK88c-10">
          <mxGeometry x="14" y="6" width="70" height="51" as="geometry" />
        </mxCell>
        <mxCell id="CoQEK6J0AAms7xFMK88c-21" value="" style="ellipse;whiteSpace=wrap;html=1;aspect=fixed;" vertex="1" parent="1">
          <mxGeometry x="6844" y="-1110" width="80" height="80" as="geometry" />
        </mxCell>
        <mxCell id="CoQEK6J0AAms7xFMK88c-22" value="" style="triangle;whiteSpace=wrap;html=1;" vertex="1" parent="1">
          <mxGeometry x="7186" y="-1269" width="100" height="78" as="geometry" />
        </mxCell>
        <mxCell id="CoQEK6J0AAms7xFMK88c-23" value="" style="ellipse;shape=cloud;whiteSpace=wrap;html=1;" vertex="1" parent="1">
          <mxGeometry x="7178" y="-1118" width="334" height="182" as="geometry" />
        </mxCell>
        <mxCell id="CoQEK6J0AAms7xFMK88c-25" value="" style="endArrow=none;html=1;rounded=0;fontSize=12;startSize=8;endSize=8;curved=1;" edge="1" parent="1">
          <mxGeometry width="50" height="50" relative="1" as="geometry">
            <mxPoint x="6462" y="-774.5" as="sourcePoint" />
            <mxPoint x="6490" y="-2201.5" as="targetPoint" />
          </mxGeometry>
        </mxCell>
        <mxCell id="CoQEK6J0AAms7xFMK88c-26" value="" style="endArrow=none;html=1;rounded=0;fontSize=12;startSize=8;endSize=8;curved=1;" edge="1" parent="1">
          <mxGeometry width="50" height="50" relative="1" as="geometry">
            <mxPoint x="7767" y="-770" as="sourcePoint" />
            <mxPoint x="7725" y="-2239" as="targetPoint" />
          </mxGeometry>
        </mxCell>
        <mxCell id="CoQEK6J0AAms7xFMK88c-27" value="Actor" style="shape=umlActor;verticalLabelPosition=bottom;verticalAlign=top;html=1;outlineConnect=0;" vertex="1" parent="1">
          <mxGeometry x="6740" y="-591" width="30" height="60" as="geometry" />
        </mxCell>
        <mxCell id="CoQEK6J0AAms7xFMK88c-28" value="" style="rounded=0;whiteSpace=wrap;html=1;" vertex="1" parent="1">
          <mxGeometry x="7450" y="-666" width="676" height="335" as="geometry" />
        </mxCell>
        <mxCell id="CoQEK6J0AAms7xFMK88c-29" value="确认登机" style="shape=process;whiteSpace=wrap;html=1;backgroundOutline=1;" vertex="1" parent="1">
          <mxGeometry x="7685" y="-418" width="206" height="33" as="geometry" />
        </mxCell>
        <mxCell id="CoQEK6J0AAms7xFMK88c-34" value="" style="ellipse;whiteSpace=wrap;html=1;aspect=fixed;" vertex="1" parent="1">
          <mxGeometry x="6999" y="-2538" width="280" height="280" as="geometry" />
        </mxCell>
        <mxCell id="CoQEK6J0AAms7xFMK88c-37" value="" style="shape=flexArrow;endArrow=classic;html=1;rounded=0;fontSize=12;startSize=8;endSize=8;curved=1;" edge="1" parent="1">
          <mxGeometry width="50" height="50" relative="1" as="geometry">
            <mxPoint x="7144" y="-825" as="sourcePoint" />
            <mxPoint x="7133" y="-1873" as="targetPoint" />
          </mxGeometry>
        </mxCell>
        <mxCell id="CoQEK6J0AAms7xFMK88c-40" value="" style="rhombus;whiteSpace=wrap;html=1;" vertex="1" parent="1">
          <mxGeometry x="7006" y="-1096" width="80" height="80" as="geometry" />
        </mxCell>
        <mxCell id="CoQEK6J0AAms7xFMK88c-48" value="" style="rounded=0;whiteSpace=wrap;html=1;movable=0;resizable=0;rotatable=0;deletable=0;editable=0;locked=1;connectable=0;" vertex="1" parent="1">
          <mxGeometry x="7880" y="-2071" width="1857" height="1068" as="geometry" />
        </mxCell>
        <mxCell id="CoQEK6J0AAms7xFMK88c-49" value="" style="shape=stencil(lVbZbuMwDPwavw4kUQf13OM/CjTdGJsmRZru8fdLw3DXkt1Z7Jsic0RxhsNokLv349PbYQju/Xa9fD/8HJ9vx0HuhxDG8/FwHW+2GuRhkLuXy/Xw7Xr5OD/Pv9+epshp9Xr5MZ3wa8ZJRigTKrjf805GnTce5/jTeF7FR0VNTXxQZPc1oCq8awCakSIBVKi0gAqpFFC0AdQAUQIoqLEFJARPABGprcGOSIQlu7GGFlARhAAiYpvBOwdHeC0K9X0KJUUUQe7uZMqRInJdWPwEZBSSIZuwrXJGnCdV57TJ4BFI0ZbBtcqpUl6zIrbtqmm55D5L1jodQCCEpVIgXbsGKpx91tZx6qkhrMSuN6YMmbSrbK4kiMxBBX7DUmYOqhta7ZKkNVbdvJKaulpROpNGCBs0CdplyNBEAH4hZWWIwlxtszJvLEcyqENOPaASXkvayeBJhrLNUBZp9g1RFhJXs8+R7tsHkAxe4Fpa5XN87gIcShvvw6LkF/GuH5W0ZIfQnq/UPR65NU9a7rcbLqitYoLCBINvu9qsTFrOSqvtsHBQopa3BkpdvGfx9t8Zung2vIIN9D4+kvONa9+Ji0jGr3gU1/FTyVyx1uoGUeRq/edz59/xtvj7tnoZT6f5abb+3r/FbGt+x8nDHw==);lineShape=1;strokeColor=default;" vertex="1" parent="1">
          <mxGeometry x="8161.150727889359" y="-1919.515573575452" width="8.182870932299315" height="15.334007071929692" as="geometry" />
        </mxCell>
        <mxCell id="CoQEK6J0AAms7xFMK88c-50" value="" style="shape=stencil(lVbLbttADPwaXQku931O0/8IEKcW6tqB47TN34eqoNqkpSl6W6854muGyyE+vO2fXneD8NvlfPq++zU+X/ZD/DKIjMf97jxe9DTExyE+vJzOu2/n0/vxef79+jRZTqcfp5/TF37PuJCoxgkl/DHfMAX5c/F1tj+Mxxv7mClXYy9UgH0u1Oz3Q6DctgGlU+7WQaFStwE1UcwGkPSmbwN6I04G0AolBoBOpVhAJy4Q0K2HHqhHGFJrFqB9AWXtxbehVwrIQySxOajPHrYBmqLYPmhWDfShZeI7APQQVgAMcqiVKvukI6hSzXc5JOqgccqlECxAKAAuKUBsH7RuESStIVUHKFBAtVGy9G4JsrUJsViA4MYVn7QCBOTQmSJ7QAKa1qoHp7i4SGodUEkcIFNBIXVP79agHgIzsSMTUwdlUhfRaTRSQxqtlJzkCh5MybdaNQoHE/vBNI2qDFudrCBu6rDFpli9i4T5Wt3sq7CuqojuPGRqIKT/BqRG0YaU6vJmrANUpFYRMVEGHiKTWDKFDl+5wJ6vocI+VN+GgLmkz4drdIajUhbe/LVXcgOF3s3uIMvNqj0vY/RKPLhn3KmzwReXKdsOl2UIbkTvhnCCw0KHld1hBLJBfVv2BBLwdRWMpQIvg2Y99rBsBld7xJxpw0vOHlX+3xuhHq7r5Mt4OMzb6O3/fv3Uq3l1jY+f);lineShape=1;strokeColor=default;" vertex="1" parent="1">
          <mxGeometry x="8584.055136868135" y="-1893.055915062845" width="13.78769765161956" height="20.11723891793483" as="geometry" />
        </mxCell>
        <mxCell id="CoQEK6J0AAms7xFMK88c-51" value="" style="shape=stencil(lVbJUuswEPwaX7ukGa1n4P0HVQTiIiRUyGP5e2RcNpEVOslNUbo9W8+MOr15W9+/rjoxb4f97nn10T8c1p3ediL9dr3a94dy6vSu05vH3X71tN/93z6Mv1/vB+Rwetm9D1/4HHkJwQ4kMV/jhYExPxf/Rvim3x7BnYXPFV4R9W98Fjhf4QMcwzukUOEToiX4CKMV3nqoEML8vYkgHt4TQkZ0dcQJSgjWzCmcGF6ggZpwsU5SgGVZSpA6iDjfnCaEyeU5rRHK62Bql0olaZosQl2IrFDiUsqQ2kK58Y4QImQRw2zzNMEj1haigSPiTg65Frcv8mIuNQQnyIzQuCR5aqgLg7aJamlIa6oJZmrBCwsXEBJXRm0g8u830rOCEK8Rt1gkUra2fVSRSAgnOtRFhDNDYJEkey6IxZiJDo7NgKI0qdXtEIgy2klZKimM0Izi0qGexXAtoV0OpfhCCM3yOarMSUKYJsRsINGp5OBrrZasMYek2T5F3GSb2KXyyhxmE8bA17oLka7PdpOESSaX4Z0ik3gbf1Rofpp4xdLx1eSz9D5V0LJenqankYOlo+jKt85ZeDn8Pqse+81mfJUd/798hpWr8Qmnd98=);lineShape=1;strokeColor=default;" vertex="1" parent="1">
          <mxGeometry x="9288.264816995194" y="-1846.6354627821179" width="17.568180960732004" height="3.0487847222219795" as="geometry" />
        </mxCell>
        <mxCell id="CoQEK6J0AAms7xFMK88c-52" value="" style="shape=stencil(nVbLctswDPwaXTEkwQd4TtP/yEycWlPXzjhO2/x9oKq0RXi0rnuT5QWEx+6SAz+8bZ9eN0Nwb6fj4fvm1/h82g78ZQhh3G83x/GkTwM/Dvzwcjhuvh0P7/vn+ffr04Scnn4cfk4Zfs9xjlyZgoL7mF/USJL/vPk643fjvse7Di+OYl3HR4qxw+dE3q3jfaJcu4BYKMt6ADOJdAHsiP16gATyuQvwlAPAR8qpwzvKYEJSbAeOPKinOqo2vwP16IL+prvgI8qfSdj0GyLAC0no8IEi2FitJD2FdCM38P18EoWC6+nnkykjfLaEKCSoX51nX7/g/L6t5yyZpqE1PpRk8legGOVb8QYfE+Rz8KbfBOavgk3ezDOA/KVSMYokQfpSuveSZ2JUv2/lXvjmUH6281QBgf2K0oUNHvFfajPAhR4Rn7kZ2iI/A3xq61/Uj/QubT0X/VZgiKqvfDV/kN+7K09XBuIP8BWBUAPFLqBQRPnvxKdgDYsjBeDQfDaQswPhI0MLCD0lcoaa1JH73oMm1QESTQH9TG+cwyqS0n9BfQ8drMoaI+Na4JQmGhufUyYC4/Jiha9M8Yh5qZ3si4CCLgehMf8sBYfF6bUJd1dEsW50o6ZE7q6mtYV811SJ71qba4f1P/LiPy6AN/D6cLltvoy73XxZXf5vb6f6ar7Z8uMn);lineShape=1;strokeColor=default;" vertex="1" parent="1">
          <mxGeometry x="8269.720633159539" y="-1255.3208134126066" width="11.999595239477559" height="26.69364385505307" as="geometry" />
        </mxCell>
        <mxCell id="CoQEK6J0AAms7xFMK88c-53" value="" style="shape=stencil(lVjZbuMwDPyavBISqfO52/2PAk23wXabIm33+PulEcg1aXuKviU2RxKH11gHuXl9vHs5Hji8vl3OP49/Tvdvjwf5dmA+PT8eL6c3/XWQ24PcPJwvxx+X8/vz/fX/y91kOf36df49rfD3ikuRap5QHP5dn8wPvl/tn07PS/tO2doHCmHfPneS7tfv+/alUbH2hRjY10Yc7Po8VtgEtEKpWkCjKvuAzlQtgDMFBKiUigGILsEA0KklA0hMEvcBMcykD0Rm6gChZ6oWUBJFELcuVMQAaiJJgNdK3e7QmBrwukUSS1NrMHI1U2ID0NAwOJK66HjthQo4Uk5ULWDB9HY5VCrWaw1mbAAQiC2vPY9TbgKm3HE7BJhNmp0lWl6FWgHZ1CnZHWqlBpyOmgnWh9KhDzGOOM2ASBklE7FtMlldACUXSKwHXOH6q/JR0hK052btZVCw7TBFGwJ9kkBXZR8BjUmvIIsosLcPwD6PnrvoeYjPmb3F+gzW190dP2EU904D8wmhBHVQNgro0UegA0Y15RxFOkgC3sENNs3CCHJiNQj1CWrB82rzVIhjdG13r5GRC/uOWhGVsrIH59GBsbJH3VQrVlb+ghgrn+z5RP5qTbqUKBRBhANFt/5cFTv21eUojx13/O3O30AJ8Cmjwhc1I0gZrYQLrskyOsKy5gE/zU+mqacg2eLntzIgYBxrwTjlqBSgJvF1QCOxgKQphFI6ep9zGVpsG1BILKmlQoWg09gN16pxB6xKG6ppBjQ4XFPydTbpKBBnVX5u+KnELUgWRa9yVCCgTlHj0LszIEAf9LWb36rdYK6umpcqioBUfPXVoF4FEOmmCsWOQOWtgnmgKitYQPrEh9WHhcgY63sC2Ck7rVm0g6aaG+MfwmE70tnrnFjgmM06+F2TkSF9tgFx6I4ZoEoH6V8Zrxc7IOkyfQqxB6C5oF+00R2J8eAMXq0pAKk76avWHUfs95qAd1r1EWBJAS5wfZxx234W7HPBwa/4yd6VD9Rreh62Qchwdqp9s/YCe5gyWtzwHwfcC9nKPoLzf/mW41N7/fFxpfJwenq63sgs3/srGH10vb6R2/8=);lineShape=1;strokeColor=default;" vertex="1" parent="1">
          <mxGeometry x="8269.764897771038" y="-1253.6042179272308" width="36.532058722332295" height="30.64614394050396" as="geometry" />
        </mxCell>
        <mxCell id="CoQEK6J0AAms7xFMK88c-54" value="" style="shape=stencil(lVjZbhsxDPwavxKiqPM5Tf8jQJzGaBoHSXr9fakaWq+o3Qny5oOjg8dwqIPcvD3evRwP3r29v56/H3+f7t8fD/Ll4P3p+fH4enrXTwe5PcjNw/n1+O31/PP5/vL95a5Ztk8/zr/aCn8uuEDJNZB3fy8/JEcp/v/l68X+6fS8shdrHz1x2bf3FNJgH4S827dn8mGwl2XHTXtHMq6vNyoJ2bvx/Jypfd23jzzac99x5755PE+iBNyjm4/LCzFYnQO5PB6HBHnf23CpvyqIrpBLxt4B74dIMZnzOODNWCia8FJh4B51fxnsC7Hs2xfu7lvOE0jABqX0bFnyhymHfUANxGPEfKUEXFozlfEKUmAF1Ep1jFnI0KnspqSOkRJA6JmyqfpAMQOA7yfogCyQJoom3ugmDU1BheBt5FpowB2St5e+hmY794RCHAG5Z+N2cqvb6wioFMCRAluyW4Vmu94i1bGea4HZJM7ma03EYAc/7+AhoWr+F7aB8MBNXCiMNV2UxBBAScMkU4a5wRo5GQFMFYRaObqMO6TYi2o7v23JRYY8qfZjTUcHw8aO/ARwyEfO9pFQKQLm46URrACw0XrbShTgUBSm1vbRDrJxJFRwCjDJ3byE2yFHC8goMUJv9qtAo5JuDdccSYkKAcRSqwIyBhjiU6JCikrjYCRJYzbk1qmiGwDtwL1+VwCPAK53j9WlYUW7KXAe9mktuJEBNG4JlMNs76jCHjpFwWHW0yuPzUGTGym95tSp3qBTNWzBAhDVt8SYAbjeeLpDQOUjPZVXgAJ0w6xX1a0w9bYKFFbDpwGxh2mlfZDQaAPCmKtNlSLAwqMLIFIByeqnSBeHAcFScYl4Dii9uhaAJh8InHhLYyobIlIyKpbGHVSOVXAHFUumJaqSEXCkkHq3WUsfAFBK8ckeCZF9moa9ynDc0EQwHa6k7oZtWbxk/5IalQQNNBqmsURV+mSkTIIlgYSVujoxm+7wwfCQbAGpUM6gS+uRylhAUvtYtw1QLWOmRIYA9bq5tFaIR3NlnZR67o7eTo1qRS5j4RCzlaAZsr1O0ibQgRLgbp3Up5eDjChDJrmH+1vs+nRJCxKURl2dXt89kOpJva6ucz16Bwhdc628j/TFNOppeJHclt7FVvkTEBd1el69UqHWnHpLWpyvQxhYP3euXcsdcP5CebyvUpkD65fplWqRMzv2yazPfTbesQ/e2kf0XGAnbbWv4L556uEeZvP0zKb2AVTLxIkJd7+0tT64b+y1uj4/amW2fTf/IDaxQ7/ao6E/TOfhLtB37D/3avyxvX64PlE/nJ6eLi/c6//tk7b+dHkOl9t/);lineShape=1;strokeColor=default;" vertex="1" parent="1">
          <mxGeometry x="8824.802490377011" y="-1343.0202218970971" width="67.83781059245182" height="66.48282113200467" as="geometry" />
        </mxCell>
        <mxCell id="CoQEK6J0AAms7xFMK88c-55" value="" style="shape=stencil(lVlJchw5DHxNXxEEwfXs5R+OsDzqGFlyyPIsvx9wOlhuZnWlpFupxSzsQIJ1sg8/77/8uDvF8PPl+enPu7/PX1/uT/bxFOP58f7u+fziTyf7dLIP356e7/54fvr1+PXy948v4+R4+v7013jDPxdci2J9oGL49/JLDBLK/798vgAezo9XgFpE4wLQIkGPAaVJbCvAJKRjQO4SywoIkowAVCwvgCYlH59PWdSW81ViJOeD9FWhIq0dn7c6xf8+34n+lkQT6N+IR2OXsp7XKL0TQEIHeZAb8ZA2sTXI5nlCsmIoUBeAO9mIj5rksJzPTRI5nyWsCpUulSjkKQYhblKJxVnier6VadFtg8MUvwG6NKLQKKvVQ11p0EyxbnqkKqUtRBvAJJG8zhFL2QGFV2Y1BDCvliwtIICldg2S+04lYnRNEncSWOLVisXvbk1EQlPJaxw80pkEzjMnrW5tJp14qXlq6pqsnQaue0NaJVSjyecm1tVLpUoiKvUkAVqYR4akhgPa6qXsrwgEkOf7to5RaZcfEqDF6Czaozi0NZes0Eh7aoAE73rMraVgTfsk6QTgPoHUiJHmktd0W+OglQ7P0QRg2hY+DOMM0wbI0kkBuddrQkBgNqiUteLUU4NLKGvgBmMgbnVAXwtIt9Z2ZDRSDKVdwwEVWE+YMm8DbFKKKwBrlQ64IYGkd3LWUNEG1jUckPdeYgMl7VQyUWa0A0CljdocAQrEIb8GALo62Cc3GtPb64FF2iRDtlaefIbUxAFKOp/nEkrwTsWzVRUBrPN5PTRFtyamkiJj1cRzSXeBsxmZQ5XAS5FLiDinPb3LK27d1XRgXjKccaNEWT3YToLTaC7hfYCcby1XfAIBI3Oeybq302BIvkF9GVH3iba2e+fukTOBvNowmCxjMw2Tz+c0GygaAhb16M+kMfWOAyL5kklC7QDIvlzEmNVtqrwRJs50e8ENqCrNDferrYEYLJG4yfcLaN8tU3biPBTJt9Je6e+rsKKkSTRvAyIS117pXtkC7mXuaGaDc7gENnS60+wXiKv0euuO0idheesW1GcVHu5Z8V2AOCfONYBN6ogLvgPYhPAaBrYxSoRI0I40sW+XCrfTFUvUK8SYRti9xx5HFNr1DM9e5tOwK7dCKWLENXH0ZqJ/wYaRt2upoxsHGLk+UzNxqI8Ohas9X3BIKbgJCUZuntT9NqCJgs2zIdwOmaFPlXJiq5hDvDLTLkn50pqcFaE+RqZC3rGeSC8nvI4LrKxi/Kq0JfQn8b83O7xTksyuMmxWyDWhZ1cZhp3LAcyjbXeVOXY9plKabecKULkEqDPlddz2O0ahUR4AsKFSxtN2jEfba0ZbQAAjCw4IELhOL0ua7Wzo9M7aARFoXhBll1YRdwwHRGbDe780vAHgD78/bHw7Pzxcvotc/x8/hPhPl48o9uk/);lineShape=1;strokeColor=default;" vertex="1" parent="1">
          <mxGeometry x="8991.460331704042" y="-1953.0904221213436" width="81.06883417106575" height="39.968196141413095" as="geometry" />
        </mxCell>
        <mxCell id="CoQEK6J0AAms7xFMK88c-56" value="" style="shape=stencil(lVjbUlsxDPyavGps+SLrmdL/YIZQMqWECdDL31enGZ/EcrKUt1y051jSaiV5k25eH+9ethsOr2+H/fftr9392+Mmfdkw754ft4fdm33apNtNunnYH7bfDvv35/vj95e7xXL59GP/c3nC7yNOEqksKA5/jr9EpVj+/fL1CHjaPZ8BqlKKI6CQKgBkqsEDAnhDaaR5BGQqEQCYNHgA5+uAXEkmQAA+5EBaPwNImZpOgHodwEo8HSkGAMgXAAyiFCtFd6RKCeQhcj9ABzBTAk4rZR7sU6IEXGhUxudbXoqAA9njRmLUSAKCalTOaQBIJAYesFAeyS0Kj5QKyRjUVqiCI+VEcfShNQoJAJRa8QBlUA3zkbS/83KBxv68cwDwoQrV5AEBvMFEJsrkA2CGtOkNjQRw1aIexOdBQTXY8/JIPmEK4EgaKLaRfEwFREkj5TEPplOo3pS9UGarQEANA+TxSFZwDTltaRoBXKDYS6HspNi8Ak5L9jUdLW6ArUaN5hJHqUF7x4zaS/aavauGjO1zz9EaIqrIvhCP54mdJ5ftTXPHThKIkb14UgRIU6uclp19AgJm+uabLSRpCz6e3F942X4V3FP8K/DX7F1d1o/sXZMy6UDnCb5JGUET0i7rISMhrAQqzgC7iYphG7QUhzgBUM4KteCPJKCtGamleacrqsrc9fwUVTTjLVU5+ixdaa7aO23s+n3tPNGNFrjKchf/E6thzoqf7wKcOC1lrhlYVaJ4Nq+jAZ9f56pXJLuftNfiG3KUPh1eBjQ/hVjGUCNQ7YQ5600FuBzDKmyrUmQYVHuFAxTrPsgJ8WVQay+9y4Dqy2CRb9SRbQR3w9o6pl8bElzirKkLeEMTamMlKM5cS5THVFvckMIvs5dXyA96zjTT2isayJwNkGU6E+qyNfquszgBwmRDsJtDjMEKvLYxm5sHMJrL2au2sUUBYOG/i1KGc7l1ynlqRiuhLYBt3l4AoFJz9dB6Z7n8At93isAteK7oCp8f/HiaBBIvdg6somRZBLxL/d/V3oYvtOh4e2vMDS2ooV9snNogauS2n4Zp2ESXBHla4eEquIQjuuejPS1lf5HCkHDLtYgfBiMo4+XepXl7wJ+SOr1O9gziWdSv74z5b6vyWGEJr0PsRaLA3d26hfoxKuNh391LKbzSMal2BWAMRO3GAH4QXOfta4OFY6iVgOBxObrJC6ucrLp8dj1YUFDbdJ9YYbcxgPdBoFJbGtyOFrEuWp6LAyjeYouffw2A1haZpD3ii6lP3+v+B8A+nK6RH3ZPT8db6PP//bWz/XS8sk63fwE=);lineShape=1;strokeColor=default;" vertex="1" parent="1">
          <mxGeometry x="9538.781189081883" y="-1740.9354557717952" width="49.32454165037497" height="30.891610053320417" as="geometry" />
        </mxCell>
        <mxCell id="CoQEK6J0AAms7xFMK88c-57" value="" style="shape=stencil(lVlJchw5DHxNXxEkwfXs5R+OsDzqGFlyyPIsvx9w2iw1k1XZ0k2qRnLBmgBP+uHn/Zcfd6fgfr48P/159/f568v9ST+eQjg/3t89n1/sr5N+OumHb0/Pd388P/16/Hr5/8eXLtn/+v70V1/hnwvOSUgdFNy/lw/Ni7b/v3y+yD+cHyf55lA+1GN5L7ku8mT9IEVR/veXXfkoDtYPkuOxfJLiZ/lthV35IiXP8rYCWd870TIDshRyYa9SFQHNE0CVmPAKv42yr9IoAXYwK6ZjgHpxs5FrkkjuoFV8mwCliRKtRjvxrNaikskOyUmZL52r1EwASfxsh2x3II6UqijsYJ5E1JrtSLOW7IsLBGDrzTukIoncIUdJ8x1SHLbfB+RlBzMl28GUOIdPtCORHYpHS0czHNnB7Kqwg6WcQgBJwqxWLeKJWkuWNO+gcTjLPqAsAKXeWizi5qShYXzZBzS8tAEcAdTFlywGK7lDDeitBogkL1VLAnPEqSUBEg81i1cEKLF0LZhaQ+NHqtJmXwp1qGEf0KRFBDiiJctzUH0snyu5dC9+YQbwZGyAGhHA6k8vT7MdrCQ1otamaAcDKAmgtmXSDRBH0O4DInqrVWGWKq0EOtjBjcRzBCizWq2IJRJxVgL9rCV/Q62WBGY7+Dgq9xEAMp8Pw1n2AWWkrQ3gxBNvbQt1KCOz7ctXCXP8RFodWhs/D3nHg6FhMPByZfKlgXxgJmhSUZ5Fs8kDB7Dgo8zKIS0J4hlR2gM0fmM4kXKXaEv1HOnjjRo1H2WRbBYrIN/4ecAjIk3xJg9MMkrm51dcn0aAyUNVk8jlIcQsJFnybaOVePWgyuUVkgTl/l0/c9pykvj5E8oz5tLtG0He8fULRry/EZEon274P+qHBViXX/RPMtBuQNK6YRvMDqGUUXR5TKGeB0ANIH/jPAXXb/w875OvSA7qYG1vLBlWk1iz2WvSHPHWfiYOAEJkhZj17715XUs902kereUVmWATCCMTbaErjJgaQIGYRp5Xtp+vSF1iAMVCYIZLnKNBSx62WnJEG8scmsbGqR08xr4BaOz4paO4YQe3cySWHjt9h67I8i9rQdr4+QrApgR1cW/lTLY3OQBQSq57G7X0jiyke6MGKcx6eNZGOcwZBmCuYc0mdqeJEsHezlYEMNewhhl4iOYRUkctObQg1sOzxFqWEI2OukaxQgDUSGmTUzxyhZhpiOaK3prc2PNo+ALOl5TStRxRralQ58sB26jMI66PqOYkYEs0Nmarg6BdTc1Yo5aSBDhSHaTpaJBX5x0KJw0xjS5lA2TKyrWONmUrooGOd3oWmg1XK1VrH6jCjJdb2i8RZ3WVNf3rUPiKOx3OnedbdzJEDFFw4mRkgk06Eo4WX6nB0WAezpOojsJyns213viwEAdZ3JVfHy54M7U+jPA07HAw2uVJBnM41umsg66PDx2RJm236D/SZsSNAeWVT7Mp6kLlTZ6176s8b8bX8wTKwdb7Btocrfr077SXp8x59Qc+oH3/Q9wtefvj9dXv2/nh4fJoeP07vhLap8sLo376Dw==);lineShape=1;strokeColor=default;" vertex="1" parent="1">
          <mxGeometry x="8303.603888733498" y="-1311.5606816420154" width="509.3114535917973" height="74.21231554394126" as="geometry" />
        </mxCell>
        <mxCell id="CoQEK6J0AAms7xFMK88c-58" value="" style="shape=stencil(lVfZctswDPwavWJIggf4nKb/kZk4tadunHHc6+8LVUPHgK315E2WsCaOxQKc+OF9+/S2mVJ4Px0P3ze/d8+n7cRfppR2r9vNcXfSp4kfJ354ORw3346Hn6/Py++3p9lyfvpx+DX/w58FV0nyDErh7/IiUIz/X3xdzPe71wtz/SzF2DP1sm7PhaQa+05c1+1LoByNfayUwzqgMpVgAClRBYCmDrMFCGXgkkRKNkWcqPd1QE8UbAxZ/wIkKYZAwQZRmFjAEZ2KDaLmkbjbgEicDKAVSgmkSYjtCcIUgUs1eCaJlhq4xMo065JG1UBe5zplD0CFmMkdPSAjQCHuFiCQrin7tPZKDfUPU3OAfA9QXQMlKqAO6lJ0WQqDLGtBR0s+EWroBO1IqwHSqKAYhIID1CELtwFKBL4CgMJxHFS7cKki8qlIsA+6gyyx6kzxaW2ggRTQxRcO0VsBXiozdXxCcvSu1IH0adCu0krvggCBqgtahafBwjkhu9C224hGfNXUDdNV2Ach6ITsS90bFCZtOWkWUOAMmnvUNbWWBukMj8KeARGKq8bgGwKLq2ap2xi0IQRVrvk5qoA7hfscoDTK1iUdQQWMxZa89FUVJnCCOuCypGcGkCUd7WxPyJpWtG0oN93606FW6lRMVgW0a5He50bJrSdtNOGaCriZleLI2+1tQ/wKFxuciucBdbbPWFvH6nJhHxD1KNoAom4aaF3yshcjCahBGNF9aBIc6ipY1n+B+bza3fCoUkJYypUxr1fM3ValcwjMhDga5EwGikhMh3KeU0MBOJN9ZgIUoeL3BDwKPnkVuWuuDx+3npfdfr9cmi6/+1uSvlpuWPz4Dw==);lineShape=1;strokeColor=default;" vertex="1" parent="1">
          <mxGeometry x="8786.766296195387" y="-1327.679320737564" width="29.056109053843908" height="22.813732041223982" as="geometry" />
        </mxCell>
        <mxCell id="CoQEK6J0AAms7xFMK88c-59" value="" style="shape=stencil(lVnZctw2EPyafZ0CMDifHec/XGU52ooiuWQlsf8+g2yBJBrcVultRfWAgzl6Dl7004/HL98fLsH9eHt9+fPh3+vXt8eL/nYJ4fr8+PB6fbNfF/180U/fXl4f/nh9+fv56+3v7186sv/66+WffsLPm5wT57pQcL9uD1qTkv9/8vsN/3R9nvC+IN6V+3gvLs/4IincxwdpdcZHye0+Po3TNryTSPSpUvyEr1E0Ev09KlSKRGIgH/ENxUlWIlDEzVfIcTjlXKBKmlVKVbInAk3y/IakUitxgtkwTQKxSSJWNTfrrFJMUskdzM8pzgJhvPNcQKW1SUCbRPaGJG2+g2bqhx4acyoot5IG0TkX1EsgbzAF6hwa9s5MzBq9lPkNIUsg0RrzSN5NIIonVkpeEggECSQ/Ux7nbQJOEknQ7ER1ErBw9CSBLPrjHBqWIY3cIVeJc2j4TDmsWPDNfvBJMvF0yZjTluWZWKmaTebg8zqUPBeIg0U3gUA9XYuEOeO8k0aCrzb0dKOk0TymQxUlN2gqOp9fBiec483Nc1zkQQnn+CRhNqkxDHGB4eG+STzHV6Awyi8tjzzZsp/Si+ET5LJUQnhWJ10DvGP2L6PubQHB9S9IFU4q07+Mf+/4yO+riM/MvxErgsUzj8/m4L6B2LPWkR47PrF8Sci9nsZbtWoAxEjjrbTVvyy/jIMi4ilnhXG9PT6V6RMwH5XGT9n46YBnpGv+gmo5WPgePifEE38ZXv3H8ND5vqOPk7LYh913KQHK/evGcQc81wfiQWnz0btQ5CtP8sXwFf3L+Mfs6dE+jp3v1/s6wg+GL3hfen7ARsXwPF8U7+uZPuHE/sxfS8dreGZPO78CXkmv2PXH+I9cf7fkI8t3j/Xi3fyKGG+svvf4WfKR8ZXDZlrp4NfjH8+P7+TXYn+mv8P6a/7l/PAxfBqjws7/FF9xhvNjIDqvX3608TuezSbWsbYMeOX1F8ZcPx6c13c35v69Hyis39jSb8ezfLF+L2L/44g9W8VFgONTultWK44WjL54SYCnDVAb9fzQ8LELV6kw6tE5zPBAiNawsgZ0cbDSBsUayrw03LwhhvumsYu614BCg5jogGR43MNIZvaJwz37wMMIq231eR+oEruvxwaRb+bqstryW0m+1+EiQwQaoUYR0BLYVFsYJ9rgDiEaaQwVxRzwibJWXpJmX6edC6Sh8SZQaZ3PHsPUN9rIpYKFI2yl6lxg2XmGQEerWJHqLHVYLxG30nLYI7Hip3Vw+WFTxaYf1WXbxsuBOszmfgRbMRasT5rHhuLeAjBDw9X4itGMOBNG3HqweztJB0tMvpPYR8LjXpU4rtdU4DCluzALNfB03w2z7fPCGn37zAS2yDnut9kXAMVCbrTAJi3vcAFY+SpmWYVZ78Ba04iTvVE5Y9aARN+/YbBQFQ/4RpewyyajtwIkKjwWcsNX9g0DO/eOp+fDpGh4Vjk9+qvj6TchKIQdT/WBRurQW50KuGV1864AzOpdI5L5DnedHU+oxSGzdDxJATdG1aPH6Fc5t0QcKzkf/+r3Ht5+7J8Yv12fnm5fKI//x0+S9uj2OVM//wc=);lineShape=1;strokeColor=default;" vertex="1" parent="1">
          <mxGeometry x="8876.06453626317" y="-1906.7205208084038" width="133.67813158358936" height="555.3240325332066" as="geometry" />
        </mxCell>
        <mxCell id="CoQEK6J0AAms7xFMK88c-60" value="" style="shape=stencil(lVfZchoxEPwaXqckjaSRnh3nP1xlHKgQcGFy/X1mi2hZjdim/LbsdqM5eg5t+Olj9/K+3QT3cTmfvm9/718vuw1/2YSwP+625/1Fnzb8vOGnt9N5++18+nl8vf5+f5mQ09OP06/pH/5ceZ5ynUjB/f3/wlO6vvl6xR/2xwW+ko8dvlDJ63AvxK7DJ6q8jtfP7Ds8UyjreA7kjf3kgPlcKJcO78i5dXxMLRoNHyiFdXwK7fiGr8QC8JVy768aFPw6IQtJnwCOlOM6QbK1KKnLIAUlkpOOkCNV4HN1FFNHEKECfKi1fZ6DJOQSUJGbs7RgCD6i5p5QiIGQlGCEoW8cPiF4S0DSUAOMlKY4gNpRF4vRtsNqVYYXewRMXW4mLwgZiEMJNhHaEZATibLYRCRQEUpIJnNCFTmdhswJhQc+GKczLKEpSskSPBKTDNpI2AdpaVoQCvKhtDQtT8D6DtH6wMjpSuIsoYAivVNyQhGYdK+qCxaTFsxAeNBpeKg5RieUoTVpHJBc1WK2BJgIDcpwQkUnZJKhRgUlQsWZBqdRqhPJ0CwF+fBZQsltCs4jQvsMKAiZgzgPoQybpXiqfVinUQyczkyxN4kz9CElir34dBdA4ovFTl4fWjO8T+A2ceYoUQA+6zJT+wN0UANhMNvdQVsnmA4hN2He7EGt28+j4DawKIBtTHdN34fUa1ZA0tj2JJ/xemhXGcVHtH5SDAMe2OObYhZ4BpLwFAb7kUhdW3JmfIKTyhGzxXugCDcoNFIC8RwatuYLNTs3xJ/hOjzLZVExBbQJRzlZPBQceZNfTwWNqE/ejh7j9eF2FXvbHw7Xm9zyu7266avrtY+f/wE=);lineShape=1;strokeColor=default;" vertex="1" parent="1">
          <mxGeometry x="8996.831846147597" y="-1904.3396253517972" width="51.60420869164429" height="55.0736995287894" as="geometry" />
        </mxCell>
        <mxCell id="CoQEK6J0AAms7xFMK88c-61" value="" style="shape=stencil(lVnbUhsxDP2avGp8k209U/ofzBBKphQYoLe/r9zUSyzHJ+UtLDq7q9vxkXYXr17vb573u+Be316evu5/Hm7f7nfx0y6Ew+P9/uXwpr928XoXr+6eXvZfXp6+P94e/36+aZbt17enH+0Ov444R8E3UHC/+4VU/174fDR/ODwO5pWNuXNr80Ax2rv7tXkiHu/uKfHavBCXwTySi2tz78mP9kw+AHum6Ab7At9enft3u24vJAnYM+U0uhuogGhGTzwmS1+RMwAU8mP8fe0ZOZ8AT1UGgDpVCgAwldHnlgRQQKlSriOAKQCn2ZGYVyoUgA8cSMY0ax4Y5JkT5fEJGugCwsqZwuhDjCTAaS5UxzzETBGUBgvFPAI0biBKWaM0PiG5HobzgEA8+pAiMQhrTraXUyYPopSzbbcksN9yJT+Wt6YSlUbRhhv5ghmWd9H7jdXK2g+IYVJ/gQ7ISiIg04Vt8eXYu/w8QElsJIHMMHGlkoxR0rhFWQOqm2hMSwMkrioJjFEqkSpwusbOQhugQBKobIms4oOhKvOOxdeeCUqjSk/TBtCOA2EVR3l0ulYq4JXEd67e2N5BMpZgn6BXPEicbC5ugAijJKnz3AZQagP9INMJpFcq6AfJVMY8tCsorIXKmAe9wshpmQAV+yBUswXAxImlSgVUlDjp5L4BhBwAeLepohNEAA3RHiEWgOq7AdgCkHZoYZqcuOB1nXxAxNRewKgTh9WhImxHCGSmFpQ0OYHqVbqaPQFkXH5pegISxO3f0QIC9iFNmXPghHivhNN6xU4bXdw64kIephbK4KRuqeYJgHuupglwoSH85PSFrp6cFpDpRZOCMJ1HJMxN9qUEqoEzbks/jJeBncoPDR0tdWbo+I8unQoWqd2PA0pn+NOCRT2UpwovndRXB53t0ozJTIWfIWTuR9/qsA6mhxImDp2NDflFKC1VcCRTGx4LDtdnjE3SCPRBFY+M9a26C0rL0ieADZDgqKXCzwjw6rHwm8Kq+hedvXWakVXDV9AQdWrq4mEtlWpPrazTGpoJih0Xs8pj4HSZhmodvhCBqz43akDHOzQjNxfHsOrEmdB8OckHxno6TyMvx5778wC2qwed/D1InMbEjT6kAvlbYxLH0kip88hqqM5mgg0wcRpEZzYJGxeuFgN2hVVgLWnUndkkMDn0hGTlRgywH3TmLmb14KAA1zSZcTFU6EOqVsWFjAHcdx8bIEE5nXQ2MzsjD08gjboJq5e+i1yt4gwZ+9yfuVr2sXlChDTTNqvmCXj14LlPkxu3dlm3Woc6QxqQ7HUEN+0GV1jJCukA9VuwPO9hlXpL2v7C2joWe3eQ3WljouaAJ1zn2hNzEHhnD03fJ62VuX0ZNN46m1XfF30r82ADCapyOiw9BRiZydxDV83LONgik6uu7w5W5mLMkRaflouu09aqCD72IeWCuf54/2Zzd3h4OH7yOf2//cajl47fh+L1Hw==);lineShape=1;strokeColor=default;" vertex="1" parent="1">
          <mxGeometry x="9096.496973205081" y="-1923.6692967288004" width="441.7729241992189" height="181.65582071592377" as="geometry" />
        </mxCell>
        <mxCell id="CoQEK6J0AAms7xFMK88c-62" value="" style="shape=stencil(lVfbchoxDP2afdXId/k5Tf8jMyGFKQ0ZQm9/X22Z3WIJTsPbYs6xdTmS7Ck9vG+f3jZT5PfT8fB183P3fNpO6dMU4+51uznuTvo1pccpPbwcjpsvx8P31+fz77enGTl/fTv8mHf4dea1RCHMrMi/zyu6kP8ufD7j97vXS3whrgM+JGoVEBqlNhD0hNJvE4RJeLQoU4+AUCjKQMhtceo6oVMfTyhCHTjdM5UxSLVTBSb1Zk9osoThKiEwE48MdasIOKJTzAOhJ+rgiF4ojGHqQoLCJDbVeqaAE9RHc8KFW1cZtTonOsxEiVSDswkQklB0TjRAiJmaWEItIHWRsvMBCTxQKw4PLAoUusUnYBBTNXihBuxhSqPyZvUCcbOTRYUpcMpWJaKAMoU44jNlUAlM2UgiUQYdSfuLiX9cInYj/kksPsJ89WzxAdiv+ukWX0DRROrV+htAWSaX37xE+Abe2qMNFuTL4+tSER+0p8FO5/0VKumeeGqrBPH0+dJ6BPHxeuiUoZ6t3jox6LtezwL15uulUYT723qsxNB+W++ZBNaXzW9aWuoH+5VmHNjv+2GE/dD3W61HYP/deD8AlIAK2I+YSIwq0g+xAEM0j0m2BDT15kHsCKiJ6qznbglo1EtzaWbYFlVlLQ0ESbAvzi6OUWoZ3oikLnNuvdZl2Clkzet6cdTcoxtRs1rNDGt/vo6PPkQdxqDZNaY2mhS0+sE0q2KjVKkCFxRfxyAV2B09PlNCyhNbbmmJ2XX82jzXCMEHi+JNuw5wmtX1PrngmQpKMdv3jcoa7K94Izp8RW5hufxc7I8eaNHGR+1H9qwKvogPyK/izTjDze7uB+Z/8frx7zX7stvvz4/hy//t61eXzi/n9PgH);lineShape=1;strokeColor=default;" vertex="1" parent="1">
          <mxGeometry x="9484.928872925107" y="-1771.9783849893502" width="65.731562661731" height="31.276416738156612" as="geometry" />
        </mxCell>
        <mxCell id="CoQEK6J0AAms7xFMK88c-63" value="" style="shape=stencil(lVrLchw3DPyavbL4Jnh2nP9wleVIFUVyycrr79PMFqklMNOb3KRdYIYEGs0GuJf06cfjl+8Pl+h/vL+9/vrw59PX98dL+ukS49PL48Pb0zv+uqTPl/Tp2+vbwy9vr7+/fL3+//3LsBx//fb6x3jCX1c/72IbTtH/ff2guVD+/eDnq/nz08uNeXCym1eX/Ll5ciKbeXG5n5s3V9Jmnl0Uspjo+v745Hw4t8dm/W6P7TB7cWG393M/x7utLnplH+u5fU7W3pNoZnFVr2f8d2ZfopOk10+SW6rLebOPLpDnVyy3qfj3RuzxddToIXCo4vy+/k7B2aIGMxDiSQJanflZDnku8dihzwAuh+YqeYMAon0PqXeZxEiKq/ueEdRAgiTN9X1JKLJOHDpAo7LcZ5yPHaLLYU8zcEH20LOu44RdsSUZ4KXuMqm0jk3viRu1xN4A5Ox7yM0lkmk4yF6bJbhIohT8Kt7lUVwk9IJXqHIu2DVLBPK0pxoVVdkmRBNeReDYkpquaNQUoyRkLuyZa3dSXWYJL4dOSRtg8jtpoKY8Q1/UFYSa8ixKXtMkakpIHkRc29GHR2RCTAJ8K4foGmOBRaTLIbvG3hBc2cGHzCRGfeL6njjkvpE8DK5UZIwwMK4Eb6lNd5dIUVd8nbUDi1IFWSft0EnicGCpA/2mao+PxDLZ+vYV7MwNB7suTARAcHkTV5LqwXTqDc1lsqTBpXsFoQhLJg74eg9TT3ORxw5hrvimIJgygbLyOx2jRBhtQAkWwwJClgRpl3ZsAPGV8bfME2c55HlQHjsUXaOVwzVADe9aoBZKfVAv6tDCAdHZkrzOQwFtsBPF1X0Luc/UH9OMkz0LOU9mO7GP+3rSeuNJA9CV0uDU3WbAl713lSnESXFL+lQnJKBNn9AQY42grul4AoaBxHOJx8VHnWKu6aPtjvxs+mQDaNl+RTck0MORxLMb/Rwmh5/YJ2PPxG3XpxrsPbXX8Qxc2pr4wJ6uX6n5sX6CBxRkiNqBESMcYjARZT2w1yUGh8I6eCP/4dA4qYSmHZiIhIOSqaMNoyhSVT+Ij2ahZWPPFKErpi3kz1fn5Z02ss8ZyG2AKOqiQV2jz9dVGShL94MMZybiZyd0C1IeHwM5NidAVdoq5vk1gONV3M1+Pa8ZPQfiND1KwNQ96x4Pi4xNvg7LuN6pexNUISA6dqBVqRo1nAVMNZqmaAgkqg2Ksr8zStFDhTtnpbEfZzHruebu/uNZL5pVhpYgmBB9dg+tQmhUjLbJVPyZCQe0FjsIrPbLdIQCABU1QgFxML0bdBsBNcpmX2Oea/QuCxEQqfaAlpA61JnSG80e2ZK67hgbR0WMegrUhJJXLHqCIvx0ssCTMufgx91Z1GQkfc7bzubYqjvrkUIjGcbumbIXeljVzvU6Pznrkm3Ty2Y0Zemsm7aazcpGpy/agYW1Gl005nOEwMa4Ipg3sPl31/NsOLBNNzNthgPrz1rRw+M7YW0GfEgcO3YkzJjcDh/YJCuZWVmiUQL61Z0U0MqOfxE9cZFON92NipfGp83mmkxwdjKHpNGKuLHhGupLabbGp3GIetrBh9wzEuhm3tfuqNSmaaY2SgLAplJVNVG0djN+wPmQ2BHXNbeOkTx/g6oH8Ehm02mZN5TrUGxT7Z5FSbEGuJDJnr7m6TfnOu0u0rzUXA6V30MsqC2HSDtCMQ3VEBNsYN40+KCVGBmPib25BWNXrzgz9dVlmHr3mMgWcpacFHr5gnJpqmkofGAedB6gb5jgRrnosetE47F9mi3FqlCaZxSLmn5lKlhL1VBNdBhXon4+gEVIb1xnqxTM2fnp4FtfZ7P4JHu7S+Mzpl+q76THwsft+8LcvfmviSdrkJq5gaQXkFlPjirF81J0N+Ah5l7nVma7cWJeujYnqfJaewlFgtdjxHtPV7210KGd1zc4QmFvhgmNXhB5zWyN/gbFXCrzM/XAnF0+HSyGYcbP4euHOZuCGIHc6Ozzf/4U6a45/vj41dO3p+fn64+mbr/Xv5LCR9dfWKXP/wA=);lineShape=1;strokeColor=default;" vertex="1" parent="1">
          <mxGeometry x="8154.304394265364" y="-1368.887495558121" width="257.11112026758605" height="235.87870457073424" as="geometry" />
        </mxCell>
        <mxCell id="CoQEK6J0AAms7xFMK88c-64" value="" style="shape=stencil(lVjLctswDPwaXTEkwec5Tf8jM3FqT1074zh9/H3BupRNUFonN1nGisACWECa+OFt+/S6mZx5O5+O3ze/ds/n7cRfJud2h+3mtDvL1cSPEz+8HE+bb6fj++H58vv1qVrWqx/Hn/UJvy84awwZU2HO/Pl/i2z5d+PrBbDfHW4ApVDs7ZmcAfaZTOrsAxn0fE+hf34i59ftc9L+Fyp53T7F5u4cLxPbdUB0lEoPEI/ACT7rE4RSBgBmfYJwZN06wDni0APkzLQOsJ7Y9UmTLDPIAlnf2zPlAFjVSeY5LcukksmdvbeUQMSJYh+wT5QjCFgY4r7qAmVQRs4Qxw4QfcvKctKEwN6lxBQARZ4b4w2QbYtqESAeh57UnMkDQMytc+dWkKyBGMSB0Mcg3RpAHWVHhjUgg+YRgOsLSfTDgF4QgGJJAAwyLTGkARBBKQlA1aoAMgIYcsMJBbiUStOHWTGuKruMyMQDTQX1W9IqeScIkb0cPkOTAPwAQIkQAA8AlGoBhL7lajEhlkRTxnJFLiVKWQOQEkseYtIApPVpJvEWgMrVUPCDS2i+Wa1kNWjAkgCK0QCkrbVHB0BBsjECChw/4lIuGhDuBG01IN2h1WlAQeU9rDEf6NE41DfcNKT6RqEBNNX6HlQggkR8GhBZ7wGybmUQQzCtX+YZVGBDyNxPPa95XlaWB+8w5ZJvk3Vtl1GZiwFuiCJkahWIbbtZPoBiT6rsGqgdhgVadpkIZqLMn762OVIEuxjrumMHZ4O0Vh+vw+PKZh2AUFZAAPI836es+og2YtbdacUlkIKQmmLNgIDHm2kOzAAL17cqGGq5wqoa9SiJbRVaToJtejVzBJNQ5C2jrwoDxUXsi7ZHIi+bIBtl79FrGDeputq7O69tRdnDF4xAXvtjQEWUqHcqrNYlkY3aHvkz9/iN/6AH6kxlzQ/Kb9Fj3MBdvs67oOxRi11n0U39gHg//d7/AYBcXD8zvOz2+8tXitv/9WcJuXX5pMGPfwE=);lineShape=1;strokeColor=default;" vertex="1" parent="1">
          <mxGeometry x="8168.9077454377875" y="-1359.3840354154718" width="37.803251948795754" height="127.79450303235788" as="geometry" />
        </mxCell>
        <mxCell id="CoQEK6J0AAms7xFMK88c-65" value="" style="shape=stencil(lZfbbtswDIafJrcEqbOuu+49CjRdgmVNkWantx+9QIlEOX/ROyfmZ5unn9TGP7zvnt62G8fv59Px+/b3/vm82/gvG+f2r7vtaX/Wq41/3PiHl+Np++10/Pn6fPn99rRYLlc/jr+WJ/y5cIWSXyDHfy9/CAn//+Prxfywf+3MhamEwV4fEIC9oyrj8yMlAUCiwAPgIlV/H3BMcQR8poCASHl0OVSSch/wQiENQNJ3RgAkimOQMlOu94Eg5N0IVPIgDSGSjGEticQBoFCIA1CZKkhcFCoGCC0z64CGNY+AhiHfB1KiOoa1ZmIAaEyKeYNvH7kKlEC+WqcjyEPJ7XYXVgalsQTRJE6rFfhQhZy3QEwQqMUCDjSQxkTGfsgBZnrJa7IAqtZ6bcgeQE5n8tECBQGlVU7nNJKlWilMABIBBWqwQAENtADGh9RSefeTqgUSeoMqKVsAJi7b8s4ZClm91mYHOJTpQFEmACVOiy9Mn4ScdsRinUY9vTTQlIeISmNu0YRrSZoKdaWRUJSk3e4Aj52eAUaAp2oAbSBUfFr9wQIZyYxGfX4DrlaZfUC6VJts9VHCQJmkMoHyFmbiqYMYZO7zxG1EdRMC6ndoA+Q6g6StXOszSANrxmKEYplLU7orUCiDAk/aw2NxdHFYn+3J7lianAS8DtkqjQYOjYigFW7eEOAgDTwB0qbM+lKWrR5r5gICfKu2bilDmdNV2KxMWWAxOU95TIQulkj8JNuppasr8kHX7zQtxwmtTNP2nZqir6ehqUq33hdQSW5KQjtPrJpP7SlQMtTcFDaUVbZbN7d83DE3Rx9uzqzHvunCzdwB9XK2ixkOTk/BfjuD2px2vA8a3vb7NbLrijI/XYA65Ha2uZl78O3ZnhMYKm6ZI4MG2ScPwB+a68XtrP2yPxwuR/X+vj2b61+Xc71//Ac=);lineShape=1;strokeColor=default;" vertex="1" parent="1">
          <mxGeometry x="8929.413919594163" y="-1275.7014843050447" width="29.03767597431498" height="104.06581720246473" as="geometry" />
        </mxCell>
        <mxCell id="CoQEK6J0AAms7xFMK88c-66" value="" style="shape=stencil(lVbLctswDPwaXTEgwRfOafofmYlTa+raGcdtk78vVI3cgLJ23BtNYyE8dgkM8vC2f3rdDZHfLufT993v8fmyH+TLEON43O/O48VOgzwO8vByOu++nU8/j8/z79enyXI6/Tj9mjy8zzgNVNqEivwx36RIQf/efJ0Bh/H4CVALpQ4QqIVtQGEqtQdI2gakTHUFiOALIhSyBySSuA0IhYQdoNlNA4BEGh1AIwkIKURqPgct1FBIvNTkClBKGfSBSuztlUFVSX3btC1Vu2kfqQZvbzWtIAFi8SVtpMA/U/Dxt0gJ+GdidfY1UwH5MqmPpygx8B8pew4VWW426ll9PFmXjmz0K/l65koVxG+ECNIDFHE09ko25SWgMyN17QAJc7RQ9D2rpu0CAc2TulYSUFQDZB9SS/A1CplS8TTl5eY2QKh0vM6UkZJDn7QJp4HGNcq+b4GNuwCQqUn/AQVMlZ5JevWwocwc+hIpyNheIul7UKE9+8fUmtxAz7hXWg0UQMtu2qP6hEVYC0CoAv/recNQaOuBxtSA//XEZDhs1iMZ80eN0trZF9CvifDev728QPZaKXoVZzj7jL6df6WA7JWyV9gkUjgrV5QLDT7WNxBGigIex3VQ8ZrWnVnbWsIIsCqrFKibdd9Elxf8TmLYIgVz+N9l8A6AHf7tni/j4TCvrp//73dVu5r3XHn8Aw==);lineShape=1;strokeColor=default;" vertex="1" parent="1">
          <mxGeometry x="8940.846381133852" y="-1228.276278846823" width="21.861348661073457" height="8.68326320329187" as="geometry" />
        </mxCell>
        <mxCell id="CoQEK6J0AAms7xFMK88c-67" value="" style="shape=stencil(lVhdcxoxDPw196rxt63nNP0fmQkpTClkCG2Tf1+5F8NZhoW8HcfunaxdyfJN/uFt/fS6mpx5Ox72P1d/N8/H9eS/Tc5tduvVYXOUq8k/Tv7hZX9Y/Tjsf++e59+vTxVZr37t/9QnvM88y5RtZTnz8XmHYvh/4/uM3252Pd7HDh/JIXyhkPrnG8oMCImYe0IhbwFBAigdwWXKKCRPoSf4Qg6FZCn1aw6SBX+dwFT6nCbTYryIz8S5w2dDJl/HJ0p9TrNkGeAjxf75JRCDlEay/fMLUwQJEgVch2fXRLyIL5RCj09Y4kDeaEICCa0RZU0w5johWApqCZ5cBBIYKr0nimgAXJeZbP+G4qHrJGLl6yy+doCQyThNiAkSlE8rAayBC8UhpITewK05LAgMdBBCVmsosL8IQddOadV6L4HJAC9dCIlbA7l30dIQULsY0lpw/VfhnCZYFNJgjUpAwg3mqyEh4WIryMWioVuHEhWCRyFJV+qbgCjNyBqx5WRBiKDNCCEO5rNoDdJUVCMWZVCWEuWBkBBBCjJqQsRe+tyZ7n2DuH8gwDXw0ARuZInbZnOnDtacvLaUGq36VGBLM+EuoPr9LbuWCyUHC+KrhGL1pFRim80ub0GejNpGLRlACF5XUDUw6DOyjapZTPJmkXK+tdLztIdXHZo5T28ocNFGCy1Fi5rA4KQ6mgCdDQW1rXO7cwXPSrSAJ5Nhj5b9DXQ93waj0yjJzVfXRrdh9DRojmnb8WK0tcilehSW2dmA+GXa971JZdoNeNhWEcn8b0Dti+fscMKIQAIh5H7nibBsZPrURxjyQALBx75qxCQonkAlKXwCVVkPPBofgGSCzxpv8QlMSWawxElPVLjkbdY1b7DAUiFWx4/xOSo81ItbOs54NDYLPup4CsYndaLF+f/6kfwGXi7O5/+XzXY7fz5Y/q+/F8it+VuDf/wH);lineShape=1;strokeColor=default;" vertex="1" parent="1">
          <mxGeometry x="9007.69013334423" y="-1263.280000790046" width="48.63246550392028" height="89.77441187396532" as="geometry" />
        </mxCell>
        <mxCell id="CoQEK6J0AAms7xFMK88c-68" value="" style="shape=stencil(lVbbctpQDPwav2qkcz/PafofmQkpnlLIENLL31eua4oEXpo3Y2uFtFrtOUN8eNs+vW6GwG+n4+Hr5sf4fNoO8dMQwrjfbo7jSZ+G+DjEh5fDcfPleHjfP8+/X5+myOnp2+H7lOHnjOuFQplQgX/Nb0IkSX/efJ4Bu3F/AWiRarOASqGuA2pcPi+AGCmXdUBu1LoBpEzM6wD9XKMBaIre1wExU2ADqIFSWwdMLdqSWqIEejh/XeKFGfagpGcD6H3h+Wa8ULct9wYLYurJxhcSkJ/90Hq8E8+W0YbrZxJLUCsUA4qvwcbjeoSK5acxFTRhak4RnRjEJxIX37CoKV3l/zvxm/GFcvb1NwFbRil7fiKopy4LcsF/RmtPIlYPWM+Vmp2X6icCPiuJ07PqAfIjLr/yD1woeU/R/WpAb2pRzcd3qJ8YfDyDeQkF128ljkj/br49UQDz0um4fefFMdbi3T7WO36SrgxRAP9C0fmDUAL8K582v+5Lhv5ZbP26jwXw/9F4BTgDKoUaEGgMxLaDnKmAQymFRWDnY09gy7ksFZ9P4kKMTmKl3Jq66H+CHlpYPOHcNDRF1WS3JPFCwu347FvGpjLtiM+fUf7q8ws0UfUQdwpEKArd8eQuHtTAACbPsXy2ZSK3l4avjlVR4wATm1zKakISMQZkd1MpVDFHntMOVaeA4GQq96bsLluTGyDZffQO+x8Affh3ZX4Zd7v5xn353V+x9dV8PY+PvwE=);lineShape=1;strokeColor=default;" vertex="1" parent="1">
          <mxGeometry x="9006.835001033207" y="-1229.7867723786944" width="35.624245707462656" height="13.469037283311991" as="geometry" />
        </mxCell>
        <mxCell id="CoQEK6J0AAms7xFMK88c-69" value="" style="shape=stencil(7VnbchQ5DP2aeVXZlmXZz8D+B1WEzdRmEyqEBf4emcG9bbnnBKr2YanK26Sj45Ys6ejSJ3718fbth5tTCh+fHh/+uvl8fvd0e+LXp5TO97c3j+cn+3XiNyd+9f7h8ebPx4dP9+8uf3942yX7r78f/uknfLngAgXpoBS+Xh5UoaDfn/xxkb873+/kE5U2yauOEw7llWKZ5EuhCuQjU54Bkqn/eVWhQC1OgBxIGwBUyjoB7EkEb2Ahnu8oKnG5DsiR0qxSJUXyQjLbnKgBhXKlUif5MB5ck2/s5DM6v1EqTv6HQdfkS3byKIbE/u3PDwHK5+blgT6yhITJg4gQ85c/P2UoX/z5GcS0yVdx8or0j9RmfSK2N1HITp4Zn1+dfMH21uTkGzrfEsbpH8YJx4DiAy4xRRRBxXuAKza5kM4uEKaCYs5oKnjiEmyDuyQVSviW8uw1tbxGbxAq7N+Qkd+M15wN9gQEaomD17ZbquOijwGZZObSrFRBqhUlnQGso6Ic14/gPZ0aMbglNe6cr9ViiYGnNZPO2ZA2PrgGaHMs9RqEADIq2A6gIDQMIMsbBANWlRipVIjrAkDXuoR3ByCVlNKiEqo6BnDh3Y0GZc0Aq9EVedqif+alTqyAZnQjlR2AkUoGUA9QrBLPKWq1P4BbquwdxxH2R9U6MNcfWQ8HjG5x0NZGAsa2gDWaDK7eeMnyARjdFqPNqghiKYatQRiIlmDP1iy+Z6tbgzXLjKgLAOWoAXLyABTf/ZqqBwT8hjg7omE2NoArowZIyBHi6bsp7M7tWkP0AJSjBnBMZoCMjNbh1z0AGa0jmvcqoTcYC2QPUJQQNjBUf60RqWRuWvwgzwDEA2C0Vj8lWSwhNm5LK2CAAmaSfq1LeKPKboAw+2GXtddiw7X1PUeRI6zKLVZXnBDCHgBjQ0bjvwOgRvQwRxWTZQoewKCJ6zyzZFBDnhM/bXRf4qR2XV9POfSG4ufJDkCe1sXTOnLqPwKUMfPvCgSaybrjlhokuCy6vlJxL2CFt80JIQpjyRRwI0fmQejHgDBahV0vgBYHqt7TKePO9aU3fumNf5veWJfuxMIbVSDlsZfbDZeoc+2NrRtfKxzybd51bWWusJ2xidrt0qTBHs5mdlcfbMhXtBWwrnMOb7u3iFYh2a+LjHgqegOP2PzZVQj7Ot2XLRiQ13UOCA1h3xrzFo7Xdmquij6zRuhLtdnTMcJli2yXuIUGJbzFfdn6vmx9/7dbX4s311zkQTTH8tkvJhpcEveEdQmGU9iaIRdAqUGNusKOrK1CAZVi8YOe4K9ncYnpslX2Y3b33VHvBEBLyH7NXQXWWCPeWZ9aYIllX/RNHrEi+71NxVv0dKAPIrk0KHYnj2b56D9fPiuf1vOBvQund3tBki3x0O8T3E/wu7nuL0BCC+f2eID6eH8JnOx+9fPx8/L2499v1e/Pd3eXT937//tv2/bo8l2c33wD);lineShape=1;strokeColor=default;" vertex="1" parent="1">
          <mxGeometry x="9064.449053924662" y="-1834.1441613807979" width="70.01594629514027" height="95.4207816118277" as="geometry" />
        </mxCell>
        <mxCell id="CoQEK6J0AAms7xFMK88c-70" value="" style="shape=stencil(rVjZjtswDPyavBK6KErP2+1/LLDZJmiaLLLp9felayixKXuSAn1znBmJIoeHvIlPH7uX9+0muI/L+fR1+3P/etlt4qdNCPvjbnveX/RpE5838entdN5+OZ++H1/H3+8vA3J4+nb6Mazwa+QFCnEgBfd7fOHIub8vPo/ww/44gVeqycLrOtyX9vcN73kdH4ScN3iJ6/iYKfEM74kBPjGV+XED5bKO59S80fCJgqzjs6M8t5+bgct4tvhMEfgzVwrV4Gtex4tuP7dfyHuAryTJ4DNYvyRKc3yFeihqv4lXgIKokWKYE4Q4AEJu610jrDYCSdRCfu6iGGGMq56hzDURSYBTlSB5LgomB1RXuyzLuel2Oc2cszoVaWusbWGEV4QC8qs0oV0jXaiCUCtB5m7SPSMKtXRaqlB8NXcmVSrIr9lmw8RxywytF95uUdEWTKG3CZ06LeyQkUkq52oJAZmUKPaRu7ODtwSYc4kyW4JHKaT6N6EWHDkmZksQdAYtA9ESMioDueXwlIBM0nzpz4DkKkteQiZJC9OEkLBJtVjCHZNKp9aATWKxBEaRli4Omg+4fnMn74p2yLb0PZDUfaG5kxC1r0yo9iXivvZhQuwIDgVCCSYQpcnrPxGY6lyu2iFgq862Lw49CBNMqx7aHJIrtyIxaaQeE/pWXZH6oo20DgMw0r5V9+u4wbCP6gTkzEBToJcKt5y/ElJLkWWCt21RZyzUIESru8kgTw6knE6VZqr3jhIaQ33rHxNCACNT1nuDqZUkaI7uepw6FazP1dZibSfgxBxaDbrN3QxcqvcMI2088UVus9TtnoFKmG6fjU5hiPt7WKDyL9e8ABOzu0QGKGnfUmoCB8Z48hYu4KzOXmEC7FDOVt5AESjH2X7m4RTczeUeFt0FeASe6Yxx0O/dUV1T0WOOdK2FPBYmB2fATgSuzYSPSQz3+Ltwfbh9EnnbHw7jF5Xp//YTir4aP7/E5z8=);lineShape=1;strokeColor=default;" vertex="1" parent="1">
          <mxGeometry x="9121.262669428712" y="-1821.636687396764" width="62.97373850529362" height="96.05060947020118" as="geometry" />
        </mxCell>
        <mxCell id="CoQEK6J0AAms7xFMK88c-71" value="" style="shape=stencil(lVnbctwgDP2afdUAAiGee/mPzDRtdpomnTS9/X3l7uA1wj7bvm0cyaCjyzngE7/59nD39f6UwrfXl+fP9z/PH14fTvz2lNL56eH+5fxqv0787sRvPj6/3H96ef7+9OHy99e7xXL59eX5x/KGXxe/SKkuTin8vjxgUv774P3F/PH8tDEX0jaYJ4pybB4TiQ72gTQDeyXJzj7FY/tUKHn7EI7tOVHx+0lg/9ngac5e6rF9iRTDYB8pg/3L9P7UH+zaV4MvOPtWgL1S8+mt4P2aqY34ZBJQDtqIR/wLZT22b4b/uB8rKIBPy3273V47APv2QolH/CMp2pDt1zkICUDUIsguA0wBOGj1DhyooRwEqmMOuMEYKlMZY8iNBFS1GOhlzFqDaVjKdIxBWn/Ffh8I8Zjn2iigxmGKaUy0UAGZLgbiGHSzTKMVAsWxlCz3AaBUMmUZHWxLCNbQR+fqUGFpGIgl+hUqiMHauU4xoKAXEN0KmSLqh9gLYQNrBkFfQVwTVyFKFmIeR4bazMMt6jin3hgy7IeqVMhSaqwzFl9RuIKupbbtOMBr1qJ57Li8Eu9+aWQfAzM10KJLtY4rpNrHwj61FV/exiUMqpXV97SxdUJkW6iOK8QAt8Ti2cQcGMBqDo7ezAHxJ1eSMK0AMm1Bx+IdBAWtnuHiOqmOHFzHGWXxDYfiHdDUMAcZa8lkWUQoad/AxgH1tMGqkwOSkeaQkndoKAbxwu2WQ5lKI0HpyVM/xFUsHjl4rZd6VPsOJq5c0BGqmcVhyjSjPJQ+3LfFh3q6UGneQVAMQpG9A6Nakp0hcKNFedoS7IfqNesyZsCotPLOU08j+WMOdcrDjQZS8Q4QVp1QSlCcLDFM5Z1ReSuF6B0qHvf/55BDF50bKY1ma65Ux36w01UBKJmqdLRrxw10nJGJHxhzXJX+7432RrSrxaOUFcZgcsr1dKn4wCH+OCA3TijNl4bpJRR0DOuheSPJKgrCiH8MwiRURZIse3nfVkV0dGpyLddw1Ha+4BEm2yQSGya+6yg2DDg0703eZ68d8G1DSZNcb1iTTTzaKu65qV4NaTTKbAVXHFaQiLSuR8k11QWSlgXtWM5OLQkEXaYxIApJS9inuihEqVqa3AF5HZ/7DtWzHCvU98r+UJMaPphN03W5SQMotTDJE4FXY+YwC1Ek4qzlmss0XECzB6lCUrQycBhJv7w7ylqe7paAvaxXi9e7K0VsEqgGZx9Q60R/0mUsxpK/WmJI6Wk+kPWE7I/t5ocww3zF7Kc845ru1fJvcKbOk9fsogE/gWMCH3GUv+3BVzFx5+1gZgWvIAUSZvBnEYGtG/r1xrWOFezdhpU3LyBNE3cXeCg386lJ4GaS7xFEYMGzS4YtPl2YZcin//mt4qa5/bh+Fvl4fny8fFXZ/t9/RrFHl08w/O4P);lineShape=1;strokeColor=default;" vertex="1" parent="1">
          <mxGeometry x="9188.895652813922" y="-1803.6660362762864" width="63.49982913568561" height="92.9339265533089" as="geometry" />
        </mxCell>
      </root>
    </mxGraphModel>
  </diagram>
  <diagram id="ph0zE-oGSQZzQBR5seVb" name="第 2 页">
    <mxGraphModel dx="1068" dy="657" grid="0" gridSize="10" guides="1" tooltips="1" connect="1" arrows="1" fold="1" page="0" pageScale="1" pageWidth="1000" pageHeight="1000" math="0" shadow="0">
      <root>
        <mxCell id="0" />
        <mxCell id="1" parent="0" />
      </root>
    </mxGraphModel>
  </diagram>
</mxfile>
